<svg width="85" height="84" viewBox="0 0 85 84" fill="none" xmlns="http://www.w3.org/2000/svg">
<path d="M69.338 33.467C66.7241 29.3716 63.2079 25.9284 59.0585 23.401C62.415 22.701 63.1045 22.134 63.465 21.651C63.5885 21.4945 63.6789 21.3145 63.7306 21.122C63.7824 20.9294 63.7944 20.7284 63.766 20.531C63.4615 18.4555 60.581 17.612 53.819 17.612C50.844 17.612 47.9005 17.7905 46.2275 17.9165L46.875 8.48754C46.8863 8.32923 46.8657 8.17025 46.8147 8.01998C46.7636 7.86971 46.6829 7.73118 46.5775 7.61254C46.4718 7.49347 46.3434 7.3968 46.1997 7.32826C46.056 7.25973 45.9 7.22072 45.741 7.21354L41.233 7.00004C41.0767 6.99155 40.9202 7.01398 40.7726 7.06606C40.6249 7.11814 40.489 7.19883 40.3726 7.30353C40.2562 7.40822 40.1616 7.53485 40.0943 7.67616C40.0269 7.81748 39.988 7.9707 39.98 8.12704L39.413 18.0635C36.9957 17.9263 34.5751 17.8551 32.154 17.85C24.013 17.85 22.375 18.9 21.815 20.0445C21.7127 20.2488 21.6595 20.4741 21.6595 20.7025C21.6595 20.931 21.7127 21.1563 21.815 21.3605C22.0915 21.9205 22.6655 22.547 25.8085 23.492C21.1775 26.3402 17.3537 30.3276 14.7018 35.0737C12.05 39.8198 10.6586 45.1663 10.6605 50.603C10.5259 54.4357 11.3141 58.2445 12.9586 61.709C14.6032 65.1735 17.0559 68.1922 20.1105 70.511C26.6717 75.0464 34.5304 77.3241 42.5 77C50.4751 77.3212 58.338 75.0373 64.9 70.4935C67.9545 68.1747 70.4073 65.156 72.0518 61.6915C73.6964 58.227 74.4845 54.4182 74.35 50.5855C74.3497 44.5176 72.6104 38.5769 69.338 33.467ZM43.039 24.619C42.8356 24.4711 42.5905 24.3914 42.339 24.3914C42.0875 24.3914 41.8424 24.4711 41.639 24.619C37.8515 27.3712 33.9176 29.9159 29.8545 32.242C31.2413 29.6582 32.7976 27.1689 34.513 24.7905C34.6295 24.6269 34.7026 24.4364 34.7257 24.2368C34.7487 24.0373 34.7208 23.8352 34.6446 23.6493C34.5685 23.4634 34.4465 23.2998 34.29 23.1738C34.1336 23.0478 33.9478 22.9634 33.75 22.9285C30.8126 22.3796 27.9133 21.6431 25.07 20.7235C27.4037 20.3179 29.7725 20.1502 32.14 20.223C36.3085 20.223 40.393 20.5205 40.435 20.524C40.5928 20.5363 40.7515 20.5169 40.9018 20.467C41.052 20.4171 41.1908 20.3377 41.31 20.2335C41.5484 20.0206 41.6941 19.7229 41.716 19.404L42.297 9.45004L44.397 9.55154L43.7495 19.145C43.7362 19.3174 43.7606 19.4906 43.821 19.6526C43.8815 19.8146 43.9765 19.9615 44.0995 20.083C44.2234 20.2038 44.3721 20.2962 44.5353 20.3536C44.6985 20.411 44.8723 20.4322 45.0445 20.4155C45.0865 20.4155 49.486 20.0095 53.812 20.0095C56.0559 19.9202 58.3021 20.1155 60.497 20.5905C57.7077 21.2878 54.8761 21.8033 52.02 22.134C51.815 22.1581 51.6198 22.235 51.4535 22.3573C51.2873 22.4796 51.1557 22.643 51.0717 22.8315C50.9876 23.02 50.9541 23.2271 50.9743 23.4325C50.9945 23.6379 51.0678 23.8345 51.187 24.003C53.1124 26.5767 54.674 29.4032 55.828 32.403C51.3027 30.266 47.016 27.6569 43.039 24.619Z" fill="#DA7727"/>
</svg>
