<svg width="25" height="25" viewBox="0 0 25 25" fill="none" xmlns="http://www.w3.org/2000/svg">
<path d="M12.54 2.91607C7.08 2.91607 2.63 7.36607 2.63 12.8261C2.63 14.5761 3.09 16.2761 3.95 17.7761L2.55 22.9161L7.8 21.5361C9.25 22.3261 10.88 22.7461 12.54 22.7461C18 22.7461 22.45 18.2961 22.45 12.8361C22.45 10.1861 21.42 7.69607 19.55 5.82607C18.6331 4.90018 17.541 4.16604 16.3375 3.66643C15.134 3.16683 13.8431 2.91175 12.54 2.91607ZM12.55 4.58607C14.75 4.58607 16.81 5.44607 18.37 7.00607C19.1354 7.77159 19.7422 8.68058 20.1558 9.68099C20.5693 10.6814 20.7815 11.7536 20.78 12.8361C20.78 17.3761 17.08 21.0661 12.54 21.0661C11.06 21.0661 9.61 20.6761 8.35 19.9161L8.05 19.7461L4.93 20.5661L5.76 17.5261L5.56 17.2061C4.73455 15.8945 4.29767 14.3758 4.3 12.8261C4.31 8.28607 8 4.58607 12.55 4.58607ZM9.03 8.24607C8.87 8.24607 8.6 8.30607 8.37 8.55607C8.15 8.80607 7.5 9.41607 7.5 10.6261C7.5 11.8461 8.39 13.0161 8.5 13.1861C8.64 13.3561 10.26 15.8561 12.75 16.9161C13.34 17.1861 13.8 17.3361 14.16 17.4461C14.75 17.6361 15.29 17.6061 15.72 17.5461C16.2 17.4761 17.18 16.9461 17.39 16.3661C17.6 15.7861 17.6 15.2961 17.54 15.1861C17.47 15.0861 17.31 15.0261 17.06 14.9161C16.81 14.7761 15.59 14.1761 15.37 14.0961C15.14 14.0161 15 13.9761 14.81 14.2161C14.65 14.4661 14.17 15.0261 14.03 15.1861C13.88 15.3561 13.74 15.3761 13.5 15.2561C13.24 15.1261 12.44 14.8661 11.5 14.0261C10.76 13.3661 10.27 12.5561 10.12 12.3061C10 12.0661 10.11 11.9161 10.23 11.8061C10.34 11.6961 10.5 11.5161 10.6 11.3661C10.73 11.2261 10.77 11.1161 10.85 10.9561C10.93 10.7861 10.89 10.6461 10.83 10.5261C10.77 10.4161 10.27 9.17607 10.06 8.68607C9.86 8.20607 9.66 8.26607 9.5 8.25607C9.36 8.25607 9.2 8.24607 9.03 8.24607Z" fill="white"/>
</svg>
