<svg width="25" height="25" viewBox="0 0 25 25" fill="none" xmlns="http://www.w3.org/2000/svg">
<path d="M10.978 22.0411C11.9834 22.2081 13.0094 22.2088 14.015 22.0431M10.978 22.0411C8.81845 21.6806 6.85578 20.5658 5.44091 18.8949C4.02604 17.2241 3.24971 15.1055 3.25 12.9161C3.25036 11.1514 3.75548 9.42371 4.70575 7.93679C5.65602 6.44987 7.01179 5.26579 8.61307 4.52427C10.2143 3.78275 11.9943 3.51474 13.743 3.75187C15.4916 3.98899 17.1359 4.72134 18.4819 5.86252C19.8279 7.0037 20.8193 8.50607 21.3393 10.1924C21.8593 11.8787 21.8861 13.6785 21.4165 15.3795C20.9469 17.0805 20.0005 18.6117 18.6891 19.7924C17.3776 20.9731 15.7558 21.754 14.015 22.0431M10.978 22.0411L10.977 17.0361H9.08C8.92087 17.0361 8.76826 16.9729 8.65574 16.8603C8.54321 16.7478 8.48 16.5952 8.48 16.4361V14.5981C8.48 14.4389 8.54321 14.2863 8.65574 14.1738C8.76826 14.0613 8.92087 13.9981 9.08 13.9981H10.977V10.8661C10.977 10.0704 11.2931 9.30735 11.8557 8.74474C12.4183 8.18214 13.1814 7.86606 13.977 7.86606H15.787C16.0522 7.86606 16.3066 7.97142 16.4941 8.15896C16.6816 8.34649 16.787 8.60085 16.787 8.86606V9.90606C16.787 10.1713 16.6816 10.4256 16.4941 10.6132C16.3066 10.8007 16.0522 10.9061 15.787 10.9061H15.015C14.7498 10.9061 14.4954 11.0114 14.3079 11.199C14.1204 11.3865 14.015 11.6408 14.015 11.9061V13.9981H16.312C16.3991 13.9981 16.4851 14.017 16.5642 14.0536C16.6432 14.0902 16.7133 14.1436 16.7696 14.21C16.826 14.2764 16.8672 14.3543 16.8904 14.4382C16.9136 14.5222 16.9182 14.6101 16.904 14.6961L16.654 16.2001C16.6152 16.4336 16.4948 16.6457 16.3142 16.7988C16.1337 16.9519 15.9047 17.036 15.668 17.0361H14.015V22.0431" stroke="white" stroke-width="1.5" stroke-linecap="round"/>
</svg>
