<svg width="85" height="84" viewBox="0 0 85 84" fill="none" xmlns="http://www.w3.org/2000/svg">
<path d="M27.625 8.75C27.625 8.05381 27.3484 7.38613 26.8561 6.89384C26.3639 6.40156 25.6962 6.125 25 6.125C24.3038 6.125 23.6361 6.40156 23.1438 6.89384C22.6516 7.38613 22.375 8.05381 22.375 8.75V14.28C17.335 14.6825 14.031 15.6695 11.602 18.102C9.16949 20.531 8.18249 23.8385 7.77649 28.875H77.2235C76.8175 23.835 75.8305 20.531 73.398 18.102C70.969 15.6695 67.6615 14.6825 62.625 14.2765V8.75C62.625 8.05381 62.3484 7.38613 61.8561 6.89384C61.3639 6.40156 60.6962 6.125 60 6.125C59.3038 6.125 58.6361 6.40156 58.1438 6.89384C57.6515 7.38613 57.375 8.05381 57.375 8.75V14.0455C55.0475 14 52.4365 14 49.5 14H35.5C32.5635 14 29.9525 14 27.625 14.0455V8.75Z" fill="#DA7727"/>
<path fill-rule="evenodd" clip-rule="evenodd" d="M7.5 42C7.5 39.0635 7.5 36.4525 7.5455 34.125H77.4545C77.5 36.4525 77.5 39.0635 77.5 42V49C77.5 62.1985 77.5 68.7995 73.398 72.898C69.296 76.9965 62.6985 77 49.5 77H35.5C22.3015 77 15.7005 77 11.602 72.898C7.5035 68.796 7.5 62.1985 7.5 49V42ZM60 49C60.9283 49 61.8185 48.6313 62.4749 47.9749C63.1313 47.3185 63.5 46.4283 63.5 45.5C63.5 44.5717 63.1313 43.6815 62.4749 43.0251C61.8185 42.3687 60.9283 42 60 42C59.0717 42 58.1815 42.3687 57.5251 43.0251C56.8687 43.6815 56.5 44.5717 56.5 45.5C56.5 46.4283 56.8687 47.3185 57.5251 47.9749C58.1815 48.6313 59.0717 49 60 49ZM60 63C60.9283 63 61.8185 62.6313 62.4749 61.9749C63.1313 61.3185 63.5 60.4283 63.5 59.5C63.5 58.5717 63.1313 57.6815 62.4749 57.0251C61.8185 56.3687 60.9283 56 60 56C59.0717 56 58.1815 56.3687 57.5251 57.0251C56.8687 57.6815 56.5 58.5717 56.5 59.5C56.5 60.4283 56.8687 61.3185 57.5251 61.9749C58.1815 62.6313 59.0717 63 60 63ZM46 45.5C46 46.4283 45.6312 47.3185 44.9749 47.9749C44.3185 48.6313 43.4283 49 42.5 49C41.5717 49 40.6815 48.6313 40.0251 47.9749C39.3687 47.3185 39 46.4283 39 45.5C39 44.5717 39.3687 43.6815 40.0251 43.0251C40.6815 42.3687 41.5717 42 42.5 42C43.4283 42 44.3185 42.3687 44.9749 43.0251C45.6312 43.6815 46 44.5717 46 45.5ZM46 59.5C46 60.4283 45.6312 61.3185 44.9749 61.9749C44.3185 62.6313 43.4283 63 42.5 63C41.5717 63 40.6815 62.6313 40.0251 61.9749C39.3687 61.3185 39 60.4283 39 59.5C39 58.5717 39.3687 57.6815 40.0251 57.0251C40.6815 56.3687 41.5717 56 42.5 56C43.4283 56 44.3185 56.3687 44.9749 57.0251C45.6312 57.6815 46 58.5717 46 59.5ZM25 49C25.9283 49 26.8185 48.6313 27.4749 47.9749C28.1313 47.3185 28.5 46.4283 28.5 45.5C28.5 44.5717 28.1313 43.6815 27.4749 43.0251C26.8185 42.3687 25.9283 42 25 42C24.0717 42 23.1815 42.3687 22.5251 43.0251C21.8687 43.6815 21.5 44.5717 21.5 45.5C21.5 46.4283 21.8687 47.3185 22.5251 47.9749C23.1815 48.6313 24.0717 49 25 49ZM25 63C25.9283 63 26.8185 62.6313 27.4749 61.9749C28.1313 61.3185 28.5 60.4283 28.5 59.5C28.5 58.5717 28.1313 57.6815 27.4749 57.0251C26.8185 56.3687 25.9283 56 25 56C24.0717 56 23.1815 56.3687 22.5251 57.0251C21.8687 57.6815 21.5 58.5717 21.5 59.5C21.5 60.4283 21.8687 61.3185 22.5251 61.9749C23.1815 62.6313 24.0717 63 25 63Z" fill="#DA7727"/>
</svg>
