<svg width="18" height="17" viewBox="0 0 18 17" fill="none" xmlns="http://www.w3.org/2000/svg">
<path d="M9.05096 0.823364C9.13786 0.823364 9.23301 0.845758 9.341 0.907349C9.41286 0.948375 9.47076 1.0097 9.51483 1.11536L9.51581 1.11731L11.3908 5.5675L11.508 5.84485L11.8078 5.87122L16.6359 6.29407C16.8007 6.31835 16.8824 6.36489 16.9221 6.39954C16.9857 6.45521 17.0404 6.53236 17.0812 6.64465C17.1154 6.7387 17.1223 6.83037 17.1008 6.93079C17.0848 7.00488 17.0433 7.08579 16.9435 7.17493L13.2746 10.3448L13.0461 10.5421L13.1144 10.837L14.2141 15.5616C14.2423 15.6846 14.2273 15.7626 14.1994 15.8214C14.1489 15.9276 14.0817 16.0114 13.9953 16.0782C13.9259 16.1318 13.8435 16.1653 13.7336 16.1749C13.653 16.1819 13.5695 16.1657 13.4709 16.1027L13.2014 16.5236L13.4709 16.1017L13.4592 16.0948L9.30975 13.5948L9.05096 13.4396L8.79315 13.5948L4.64374 16.0948H4.64276L4.633 16.1017C4.53375 16.1648 4.44928 16.1818 4.36737 16.1749C4.25856 16.1658 4.17753 16.1319 4.10858 16.0782C4.02122 16.0103 3.95299 15.9271 3.90253 15.8214C3.87507 15.7639 3.85915 15.6845 3.88788 15.5597L4.98846 10.837L5.05682 10.5421L4.82831 10.3448L1.1535 7.17004C1.05876 7.08267 1.01886 7.00295 1.00311 6.92981C0.981378 6.8286 0.98803 6.73694 1.02167 6.64368C1.06159 6.53319 1.11615 6.45618 1.18085 6.39954C1.22122 6.36422 1.30248 6.31769 1.46503 6.29407L6.2951 5.87122L6.59491 5.84485L6.7121 5.5675L8.5871 1.11731L8.58807 1.11536C8.63218 1.00968 8.68999 0.94836 8.7619 0.907349C8.86973 0.845864 8.96417 0.823422 9.05096 0.823364Z" stroke="black"/>
</svg>
