<svg width="85" height="84" viewBox="0 0 85 84" fill="none" xmlns="http://www.w3.org/2000/svg">
<path d="M67 66.507V73.5C66.9998 74.3573 66.6851 75.1847 66.1154 75.8253C65.5458 76.4659 64.7608 76.8752 63.9095 76.9755L63.5 77H21.5C20.5717 77 19.6815 76.6313 19.0251 75.9749C18.3687 75.3185 18 74.4283 18 73.5V66.521C18 65.5927 18.3687 64.7025 19.0251 64.0461C19.6815 63.3897 20.5717 63.021 21.5 63.021L63.5 63.007C64.4282 63.007 65.3185 63.3757 65.9748 64.0321C66.6312 64.6885 67 65.5787 67 66.507ZM42.5 7C45.8325 6.99937 49.0958 7.95027 51.9064 9.74089C54.717 11.5315 56.9578 14.0874 58.3655 17.108L58.5755 17.5875L59.0515 17.556C62.8956 17.3821 66.6898 18.4801 69.847 20.68C73.0042 22.8799 75.3483 26.0591 76.5165 29.7255L76.737 30.471C77.812 34.4393 77.4555 38.6594 75.7301 42.3911C74.0047 46.1229 71.0206 49.128 67.301 50.8795L66.9965 51.009V56.007C66.9965 56.9353 66.6277 57.8255 65.9713 58.4819C65.3149 59.1382 64.4247 59.507 63.4965 59.507L21.4965 59.521C20.6392 59.5209 19.8118 59.2062 19.1712 58.6365C18.5305 58.0668 18.1213 57.2819 18.021 56.4305L17.9965 56.021V51.0055L17.566 50.813C15.4122 49.7765 13.4937 48.3098 11.9286 46.5033C10.3635 44.6968 9.18509 42.5889 8.46595 40.3095L8.24195 39.529C7.52666 36.8348 7.46533 34.0087 8.06306 31.286C8.6608 28.5633 9.9003 26.0227 11.6784 23.8759C13.4564 21.7291 15.7216 20.038 18.2854 18.9436C20.8491 17.8492 23.6372 17.3831 26.4175 17.584L26.6485 17.087C28.0008 14.1947 30.1187 11.7275 32.7728 9.95258C35.4268 8.17766 38.5159 7.16266 41.7055 7.0175L42.5 7Z" fill="#DA7727"/>
</svg>
